<svg xmlns="http://www.w3.org/2000/svg" width="508" height="94" fill="none" viewBox="0 0 508 94"><path fill="#EB5286" d="M28.5 74.4c15.2 0 26-8 26-21.5 0-14.8-11.9-18.5-22.5-21.7-10.9-3.3-12.6-5.5-12.6-8.7 0-2.8 2.5-5.3 7.5-5.3 6.4 0 9.7 3.1 12.1 8.1l13.5-7.9C47.4 7.1 38.4 1.6 26.9 1.6 14.8 1.6 3.4 9.4 3.4 22.9c0 13.4 10.2 18.4 20.6 21.3 10.5 2.9 14.5 4.6 14.5 8.9 0 2.7-1.9 5.7-9.5 5.7-7.9 0-12.2-3.9-14.7-9.7l-13.8 8c3.9 10.3 13.3 17.3 28 17.3zM109.996 73l-18.7-25 18.2-25h-17.5l-15 21.9V3h-15v70h15V50.9l16 22.1h17zM125.884 54h35.5c.4-1.9.6-3.9.6-6 0-15.1-10.8-26.4-25.4-26.4-15.8 0-26.6 11.5-26.6 26.4 0 14.9 10.6 26.4 27.7 26.4 9.5 0 16.9-3.5 21.8-10.3l-12-6.9c-2 2.2-5.5 3.8-9.6 3.8-5.5 0-10.1-1.8-12-7zm-.3-11.2c1.4-5.1 5.2-7.9 10.9-7.9 4.5 0 9 2.1 10.6 7.9h-21.5zM170.492 73h15V0h-15v73zM209.869 54h35.5c.4-1.9.6-3.9.6-6 0-15.1-10.8-26.4-25.4-26.4-15.8 0-26.6 11.5-26.6 26.4 0 14.9 10.6 26.4 27.7 26.4 9.5 0 16.9-3.5 21.8-10.3l-12-6.9c-2 2.2-5.5 3.8-9.6 3.8-5.5 0-10.1-1.8-12-7zm-.3-11.2c1.4-5.1 5.2-7.9 10.9-7.9 4.5 0 9 2.1 10.6 7.9h-21.5zM284.423 23l-10.4 31.7-10.4-31.7h-16.6l18.5 50h17l18.5-50h-16.6zM317.974 54h35.5c.4-1.9.6-3.9.6-6 0-15.1-10.8-26.4-25.4-26.4-15.8 0-26.6 11.5-26.6 26.4 0 14.9 10.6 26.4 27.7 26.4 9.5 0 16.9-3.5 21.8-10.3l-12-6.9c-2 2.2-5.5 3.8-9.6 3.8-5.5 0-10.1-1.8-12-7zm-.3-11.2c1.4-5.1 5.2-7.9 10.9-7.9 4.5 0 9 2.1 10.6 7.9h-21.5zM391.882 21.6c-6.6 0-11.6 2.4-14.3 6.1V23h-15v50h15V45.7c0-7.1 3.8-10.3 9.3-10.3 4.8 0 8.7 2.9 8.7 9.1V73h15V42.3c0-13.5-8.6-20.7-18.7-20.7zM450.183 37.4V23h-10.3V9l-15 4.5V23h-8v14.4h8v17.7c0 14 5.7 19.9 25.3 17.9V59.4c-6.6.4-10.3 0-10.3-4.3V37.4h10.3zM491.152 23l-9.4 30.6-11.1-30.6h-16.5l19.9 47.7c-2.2 6.1-5.5 8.3-12.5 8.3v14c14 .7 22.9-5.6 28.5-21.5l17.1-48.5h-16z"/></svg>